<?xml version="1.0" standalone="no"?>
<!DOCTYPE svg PUBLIC "-//W3C//DTD SVG 20010904//EN"
 "http://www.w3.org/TR/2001/REC-SVG-20010904/DTD/svg10.dtd">
<svg version="1.0" xmlns="http://www.w3.org/2000/svg"
 width="571.000000pt" height="571.000000pt" viewBox="0 0 571.000000 571.000000"
 preserveAspectRatio="xMidYMid meet">
<metadata>
Created by potrace 1.11, written by Peter Selinger 2001-2013
</metadata>
<g transform="translate(0.000000,571.000000) scale(0.100000,-0.100000)"
fill="#000000" stroke="none">
<path d="M2621 5699 c-1127 -100 -2073 -827 -2453 -1883 -322 -896 -168 -1907
406 -2669 541 -720 1375 -1137 2272 -1137 362 0 672 54 1001 175 250 93 575
277 793 451 109 87 347 325 434 434 174 218 358 543 451 793 121 329 175 639
175 1001 0 582 -169 1126 -498 1606 -415 605 -1059 1033 -1776 1180 -237 48
-580 70 -805 49z m614 -150 c416 -61 786 -203 1124 -430 164 -110 267 -195
412 -339 225 -224 376 -435 519 -725 131 -267 211 -518 256 -810 26 -167 27
-609 1 -770 -82 -512 -268 -938 -580 -1325 -115 -142 -336 -356 -484 -467
-368 -277 -768 -443 -1248 -520 -161 -26 -603 -25 -770 1 -292 45 -543 125
-810 256 -290 143 -501 294 -725 519 -426 428 -678 933 -771 1541 -26 171 -31
519 -10 685 80 638 355 1194 807 1636 208 202 415 352 654 474 348 177 654
261 1080 299 103 9 411 -5 545 -25z"/>
<path d="M1652 4493 c-17 -43 -116 -295 -221 -561 -105 -265 -191 -485 -191
-487 0 -3 31 -5 69 -5 l68 0 69 180 69 180 223 -2 224 -3 68 -175 68 -175 72
-3 c65 -3 71 -1 66 15 -3 10 -102 263 -220 563 l-214 545 -60 3 -60 3 -30 -78z
m98 -110 c0 -10 38 -117 84 -238 l83 -220 -88 -3 c-49 -1 -129 -1 -177 0 l-89
3 73 190 c40 105 79 211 85 238 13 47 29 63 29 30z"/>
<path d="M3540 4005 l0 -565 213 0 c243 0 314 11 423 65 168 82 256 235 270
467 18 298 -121 514 -371 578 -67 17 -111 20 -307 20 l-228 0 0 -565z m430
444 c219 -35 330 -179 330 -431 0 -117 -13 -185 -50 -258 -74 -144 -217 -209
-467 -210 l-103 0 0 455 0 455 113 0 c61 0 141 -5 177 -11z"/>
<path d="M3950 2205 c-187 -52 -315 -185 -367 -385 -24 -94 -21 -290 6 -393
50 -188 170 -313 341 -351 114 -26 283 -20 412 14 l38 11 0 59 c0 33 -4 60 -9
60 -5 0 -43 -7 -83 -16 -111 -25 -269 -23 -340 5 -150 58 -237 215 -238 427 0
155 38 263 124 350 82 83 145 107 276 107 77 1 110 -4 173 -26 42 -15 79 -27
81 -27 3 0 16 26 31 57 30 65 31 63 -65 94 -86 29 -298 36 -380 14z"/>
</g>
</svg>
